HIERARCHY
ROOT Hips
{
	OFFSET -3.958830 18.904000 13.208200
	CHANNELS 6 Xposition Yposition Zposition Zrotation Yrotation Xrotation 
	JOINT LHipJoint
	{
		OFFSET 0.000000 0.000000 0.000000
		CHANNELS 3 Zrotation Yrotation Xrotation
		JOINT LeftUpLeg
		{
			OFFSET 1.800000 -1.400000 0.085000
			CHANNELS 3 Zrotation Yrotation Xrotation
			JOINT LeftLeg
			{
				OFFSET 2.215000 -6.000000 0.000000
				CHANNELS 3 Zrotation Yrotation Xrotation
				JOINT LeftFoot
				{
					OFFSET 2.500000 -6.900000 0.000000
					CHANNELS 3 Zrotation Yrotation Xrotation
					JOINT LeftToeBase
					{
						OFFSET 0.200000 -0.500000 1.950000
						CHANNELS 3 Zrotation Yrotation Xrotation
						End Site
						{
							OFFSET 0.000000 0.000000 0.000000
						}
					}
				}
			}
		}
	}
	JOINT RHipJoint
	{
		OFFSET 0.000000 0.000000 0.000000
		CHANNELS 3 Zrotation Yrotation Xrotation
		JOINT RightUpLeg
		{
			OFFSET -1.800000 -1.400000 0.085000
			CHANNELS 3 Zrotation Yrotation Xrotation
			JOINT RightLeg
			{
				OFFSET -2.215000 -6.000000 0.000000
				CHANNELS 3 Zrotation Yrotation Xrotation
				JOINT RightFoot
				{
					OFFSET -2.500000 -6.900000 0.000000
					CHANNELS 3 Zrotation Yrotation Xrotation
					JOINT RightToeBase
					{
						OFFSET -0.200000 -0.500000 1.950000
						CHANNELS 3 Zrotation Yrotation Xrotation
						End Site
						{
							OFFSET 0.000000 0.000000 0.000000
						}
					}
				}
			}
		}
	}
	JOINT LowerBack
	{
		OFFSET 0.000000 0.000000 0.000000
		CHANNELS 3 Zrotation Yrotation Xrotation
		JOINT Spine
		{
			OFFSET -0.087000 1.940000 -0.288900
			CHANNELS 3 Zrotation Yrotation Xrotation
			JOINT Spine1
			{
				OFFSET 0.000000 1.950000 0.060000
				CHANNELS 3 Zrotation Yrotation Xrotation
				JOINT Neck
				{
					OFFSET 0.000000 0.000000 0.000000
					CHANNELS 3 Zrotation Yrotation Xrotation
					JOINT Neck1
					{
						OFFSET 0.000000 1.600000 0.340000
						CHANNELS 3 Zrotation Yrotation Xrotation
						JOINT Head
						{
							OFFSET 0.000000 1.667000 -0.240000
							CHANNELS 3 Zrotation Yrotation Xrotation
							End Site
							{
								OFFSET 0.000000 0.000000 0.000000
							}
						}
					}
				}
				JOINT LeftShoulder
				{
					OFFSET 0.000000 0.000000 0.000000
					CHANNELS 3 Zrotation Yrotation Xrotation
					JOINT LeftArm
					{
						OFFSET 2.700000 1.550000 -0.730000
						CHANNELS 3 Zrotation Yrotation Xrotation
						JOINT LeftForeArm
						{
							OFFSET 5.450000 0.000000 0.000000
							CHANNELS 3 Zrotation Yrotation Xrotation
							JOINT LeftHand
							{
								OFFSET 3.450000 0.000000 0.000000
								CHANNELS 3 Zrotation Yrotation Xrotation
								JOINT LeftHandIndex1
								{
									OFFSET 0.750000 0.000000 0.000000
									CHANNELS 3 Zrotation Yrotation Xrotation
									End Site
									{
										OFFSET 0.000000 0.000000 0.000000
									}
								}
							}
						}
					}
				}
				JOINT RightShoulder
				{
					OFFSET 0.000000 0.000000 0.000000
					CHANNELS 3 Zrotation Yrotation Xrotation
					JOINT RightArm
					{
						OFFSET -2.700000 1.550000 -0.730000
						CHANNELS 3 Zrotation Yrotation Xrotation
						JOINT RightForeArm
						{
							OFFSET -5.450000 0.000000 0.000000
							CHANNELS 3 Zrotation Yrotation Xrotation
							JOINT RightHand
							{
								OFFSET -3.450000 0.000000 0.000000
								CHANNELS 3 Zrotation Yrotation Xrotation
								JOINT RightHandIndex1
								{
									OFFSET -0.750000 0.000000 0.000000
									CHANNELS 3 Zrotation Yrotation Xrotation
									End Site
									{
										OFFSET 0.000000 0.000000 0.000000
									}
								}
							}
						}
					}
				}
			}
		}
	}
}
MOTION
Frames: 14
Frame Time: 0.016667
0.185370 17.501300 -1.878030 -3.635844 -2.779885 -19.686193 -15.456809 13.805735 3.490965 6.275662 2.085107 13.653661 -8.889097 7.006255 4.808911 0.355218 5.965292 2.557632 0.347570 -0.021400 0.539780 17.999360 -10.331610 2.763794 -4.901374 -1.949026 7.287740 7.587892 -6.652040 12.198741 -0.732672 -4.664851 2.654340 -0.062840 -0.106180 0.202280 -2.770454 -3.593531 -7.951620 9.374749 -2.291756 25.497493 -2.929005 -0.688956 22.838086 4.136839 -5.342131 -15.959634 -14.695090 4.985119 46.253142 -0.111180 -0.050260 -14.267840 -0.765751 -18.613947 10.191807 -18.433453 -3.165490 -13.491591 114.895406 -11.022606 -35.620645 -3.627903 3.172328 0.626730 -0.236160 0.227420 -0.053730 -6.294276 24.498604 11.474854 19.210333 6.233310 -21.337224 -107.801814 7.265300 -28.218993 2.490324 -2.063071 -0.080450 0.085720 0.002500 -0.213450 
0.191820 17.500770 -1.837240 -3.965513 -3.568229 -20.178631 -15.441098 13.912554 3.450750 6.579181 1.992071 13.465711 -8.614188 7.275599 6.737106 0.336308 5.999182 2.515621 0.380110 -0.002340 0.575040 17.977488 -10.299521 2.911872 -4.997331 -2.201134 8.979017 8.179027 -6.707675 10.678740 -0.814506 -4.748305 2.607476 -0.064480 -0.160900 0.211010 -2.748640 -3.758890 -8.077888 10.666320 -2.362883 25.542365 -3.652562 -0.301573 21.569037 4.908268 -5.519017 -17.240425 -16.262745 5.477700 49.594111 -0.312200 -0.743020 -15.145780 -4.016298 -21.165032 10.350881 -15.320698 -1.603534 -14.052676 116.095495 -8.031072 -31.427667 -3.605031 3.180426 0.683780 -0.286700 0.277100 -0.062480 -4.434458 27.494967 12.594733 17.651163 3.649778 -22.296282 -109.712996 4.592600 -25.577893 2.546932 -2.092495 -0.064590 0.080080 -0.003990 -0.226350 
0.190960 17.489000 -1.773040 -4.115044 -4.384422 -20.412862 -15.423115 14.037832 3.480997 6.686473 1.988898 13.601112 -8.165414 7.309302 7.460377 0.388585 5.920398 2.501280 0.446710 0.112850 0.576950 17.948705 -10.248121 3.048128 -5.344464 -2.421310 10.445165 8.925125 -6.762846 9.227012 -0.925252 -4.812522 2.577951 -0.046550 -0.218320 0.224990 -2.720139 -4.025830 -8.253382 11.655442 -2.587924 24.934841 -4.419485 0.108195 19.469600 5.295105 -5.734222 -19.613868 -18.589094 7.666881 54.688207 2.163050 -0.884200 -15.416750 -7.757153 -24.075074 10.816251 -12.847941 1.023920 -14.624331 117.839529 -4.504235 -26.179102 -3.572535 3.248941 0.717060 -0.343300 0.364420 -0.034960 -1.247246 31.065387 14.153918 15.562186 0.601455 -22.402484 -112.123359 3.271146 -24.370830 2.613398 -2.116459 0.005910 0.062780 -0.045050 -0.194810 
0.189700 17.479480 -1.700620 -4.648582 -4.930062 -20.196105 -15.376758 14.099947 3.495206 7.093300 1.868884 13.390811 -8.088527 7.326731 7.677221 0.375639 5.867551 2.492381 0.481830 0.164970 0.606430 17.961777 -10.216881 3.165140 -5.237780 -2.652457 11.472165 9.617806 -6.823998 8.185665 -1.002037 -4.838590 2.565958 -0.034500 -0.265190 0.197050 -2.794495 -4.151580 -8.364459 13.582184 -3.026245 23.480745 -5.580799 0.328144 17.670768 5.760108 -5.883811 -21.778114 -20.853967 9.829239 59.714777 3.463340 -0.883470 -15.754650 -9.908761 -25.417456 11.212602 -12.464906 2.893719 -14.501773 119.017416 -2.875384 -23.402901 -3.530041 3.223292 0.775890 -0.397750 0.420460 -0.038090 0.208506 32.921349 15.341194 15.992847 -0.958269 -22.021480 -114.554604 3.053725 -24.778736 2.630964 -2.076970 0.012790 0.091310 -0.063140 -0.201200 
0.186850 17.468630 -1.632070 -4.874345 -5.319476 -19.949256 -15.333453 14.052213 3.461942 7.023595 1.831165 13.346690 -7.721432 7.289988 8.065006 0.394009 5.796940 2.513096 0.530270 0.228700 0.626590 17.999510 -10.263889 3.210075 -5.426852 -2.788764 11.987115 9.964799 -6.857033 7.694354 -1.044746 -4.911739 2.536607 -0.007510 -0.288770 0.198560 -2.901729 -3.982849 -8.367060 14.773606 -2.785850 21.185877 -5.966976 0.405904 18.270390 5.928039 -5.809681 -22.339828 -21.101511 10.171569 61.068346 3.471270 -0.970250 -14.831100 -11.152144 -26.105763 11.254446 -11.587741 2.846528 -14.143438 119.198340 -2.848774 -22.838488 -3.505302 3.263080 0.757720 -0.409450 0.440260 -0.010020 1.185922 33.513017 15.871513 15.748673 -1.907731 -21.622676 -115.654551 3.943807 -26.588661 2.635553 -2.106282 0.043980 0.075850 -0.104820 -0.187870 
0.175570 17.463720 -1.578400 -4.303747 -5.302286 -20.387543 -15.348559 13.914949 3.421000 6.557257 2.055892 14.036579 -7.741094 7.376778 8.298621 0.445344 5.803915 2.524129 0.565530 0.289120 0.632760 18.013975 -10.313713 3.170164 -6.131254 -2.847754 12.771103 9.845408 -6.932925 7.685655 -1.067362 -5.038552 2.518924 0.019590 -0.286060 0.186260 -2.903850 -3.700313 -8.282086 13.682416 -1.905698 19.259447 -5.005351 0.359801 20.990328 5.564495 -5.766564 -21.838093 -20.704837 9.588667 60.336972 3.833070 -1.290320 -14.675070 -10.706061 -26.674291 11.432445 -11.021504 1.569741 -14.279099 118.602531 -3.452454 -24.062048 -3.497720 3.274150 0.715650 -0.401350 0.435620 0.020750 1.587298 33.642842 15.844678 14.355114 -2.188299 -21.758870 -115.069711 4.719521 -27.787189 2.651209 -2.125967 0.067020 0.077710 -0.145830 -0.167440 
0.171900 17.471030 -1.536960 -4.477545 -5.351859 -21.046733 -15.304240 13.758806 3.371150 6.850899 2.157710 14.996172 -7.638728 7.401117 8.039871 0.501287 5.816872 2.528488 0.595960 0.353490 0.647550 18.088197 -10.370778 3.146924 -6.193511 -3.055867 13.717281 9.594877 -7.045830 7.897946 -1.114945 -5.148286 2.508626 0.033880 -0.298690 0.177450 -3.075998 -3.358538 -8.154639 14.443375 -1.712390 17.998373 -5.450821 0.103946 23.364242 5.660289 -5.724443 -21.529070 -20.607978 9.489182 60.339230 3.221490 -1.078920 -15.816910 -10.436263 -27.326822 11.761539 -10.275314 1.585510 -14.698156 117.535943 -4.834003 -26.204511 -3.496669 3.238268 0.693520 -0.407160 0.457970 0.039250 1.167703 33.798271 15.821294 14.216655 -2.094405 -22.276605 -113.757962 5.737486 -29.177298 2.667167 -2.101794 0.098660 0.092930 -0.179490 -0.147200 
0.173460 17.486720 -1.518650 -4.384396 -5.308149 -21.639564 -15.272175 13.705533 3.314579 6.721649 2.207393 15.286182 -7.263941 7.483523 8.981629 0.553236 5.781152 2.535557 0.645040 0.437430 0.673600 18.128279 -10.439161 3.122504 -6.491339 -3.136670 14.179046 9.425935 -7.151326 8.360956 -1.162282 -5.210173 2.496282 0.053180 -0.330200 0.181880 -3.180204 -3.168410 -8.053426 14.587727 -1.701451 17.505686 -5.669835 -0.109358 24.529573 5.683851 -5.715768 -21.419612 -20.903905 10.056324 61.373061 2.957040 -0.578690 -16.385880 -11.066862 -27.837288 11.961020 -9.730717 2.113050 -15.104701 116.379374 -6.079472 -27.443917 -3.479715 3.232139 0.675800 -0.425340 0.501440 0.065150 1.784439 34.035710 15.772959 13.256289 -1.993818 -22.325471 -112.409550 7.065837 -30.136139 2.694617 -2.081817 0.146990 0.086070 -0.228700 -0.123610 
0.172640 17.501820 -1.511090 -4.573803 -4.852125 -22.341510 -15.290925 13.754586 3.262175 7.146831 2.125079 15.434715 -6.798206 7.574189 10.052759 0.549354 5.816311 2.490465 0.672390 0.468300 0.698300 18.112791 -10.434755 3.113255 -6.078316 -3.281697 14.787652 8.749539 -7.193989 9.030692 -1.194910 -5.239966 2.466703 0.054020 -0.380000 0.209730 -3.136630 -3.217996 -7.998049 14.456617 -1.785940 17.767685 -5.635544 -0.349644 25.286305 6.007345 -5.600840 -21.171685 -21.132237 10.186776 62.474534 1.640840 -0.488230 -18.037510 -11.566346 -28.078056 12.025177 -9.190224 2.117730 -15.289873 115.587882 -7.223815 -28.700616 -3.477962 3.226061 0.692990 -0.450180 0.537380 0.047780 1.687421 34.053502 15.561161 12.868633 -1.803920 -22.703093 -110.716452 7.715901 -30.045931 2.702936 -2.061963 0.183580 0.055460 -0.228820 -0.128720 
0.175560 17.506050 -1.516580 -4.400887 -4.844853 -23.001254 -15.283028 13.776442 3.247884 7.129294 2.141629 15.530164 -6.674823 7.714601 11.029362 0.521652 5.878154 2.454473 0.669300 0.458580 0.714740 18.110875 -10.488741 3.089995 -6.216057 -3.219285 14.840939 8.540808 -7.330573 9.993237 -1.197202 -5.274517 2.446959 0.053960 -0.396880 0.213020 -3.142492 -3.171778 -7.974345 14.063033 -1.809008 18.809398 -5.910530 -0.179393 25.458246 6.025568 -5.244591 -20.810167 -20.002910 10.012856 62.744185 1.064150 0.183770 -19.001100 -11.351625 -28.031410 11.947917 -8.800472 2.442353 -15.533997 114.764480 -8.113299 -29.619242 -3.490897 3.200078 0.716740 -0.453230 0.543650 0.025280 1.320252 33.708023 15.293667 13.321005 -1.232296 -23.112555 -109.142670 7.953088 -29.711816 2.692917 -2.032133 0.172500 0.052800 -0.215630 -0.151940 
0.173730 17.509120 -1.554390 -4.616770 -4.589074 -24.174096 -15.299442 13.881210 3.207128 7.775147 2.059788 15.578094 -6.483704 7.951618 12.462558 0.575026 5.936346 2.441311 0.706840 0.521180 0.734430 18.082597 -10.484643 3.077043 -5.998601 -3.268344 15.141851 8.318196 -7.454464 11.193515 -1.227086 -5.312615 2.441411 0.073550 -0.429780 0.200220 -3.078952 -3.334892 -7.951669 13.562156 -2.235242 21.468940 -5.837927 -0.351812 25.850858 5.896096 -5.348787 -20.144223 -19.836283 9.764750 60.888085 1.209030 0.588230 -20.693940 -9.815054 -27.582224 11.849601 -9.596991 1.971371 -16.393496 114.365894 -8.033775 -30.356943 -3.448987 3.233785 0.704170 -0.477390 0.567130 0.048320 -0.108681 33.185765 14.899452 13.987316 -0.954566 -23.920775 -107.754386 8.349727 -30.307322 2.707047 -2.054960 0.197670 0.043660 -0.263750 -0.141510 
0.184750 17.515510 -1.609010 -4.763971 -4.587317 -25.282050 -15.263342 13.893198 3.162919 8.096719 1.965300 15.566818 -6.448691 8.176435 13.708441 0.542849 6.099170 2.421752 0.641580 0.425610 0.711530 18.115946 -10.560018 3.028305 -5.821137 -3.211713 14.898139 7.766149 -7.592810 12.835136 -1.204375 -5.339796 2.443969 0.039480 -0.377210 0.195200 -3.174419 -3.254467 -7.859237 13.803967 -2.671164 24.396418 -6.207808 -0.471591 26.348511 5.709314 -5.770889 -18.811825 -19.951701 8.882438 57.316290 0.697760 0.424680 -23.188320 -7.892946 -26.289834 11.371322 -10.471654 0.329567 -16.657574 113.786940 -9.473170 -32.908666 -3.466536 3.143591 0.733760 -0.461380 0.537010 0.031120 -1.823085 31.730794 14.291432 15.242540 -0.573191 -24.571675 -107.007622 10.367468 -32.940164 2.652516 -1.970433 0.137440 0.095530 -0.215760 -0.156900 
0.196660 17.532430 -1.689880 -5.117722 -4.089781 -26.580611 -15.169227 13.832157 3.069119 8.343375 1.794098 15.420368 -5.943221 8.323707 15.539789 0.483584 6.243832 2.393900 0.583080 0.347820 0.668970 18.209287 -10.722496 2.990478 -5.439495 -3.079348 14.316670 7.364899 -7.775695 14.886326 -1.170327 -5.428298 2.413888 0.033480 -0.316650 0.195100 -3.441030 -2.906757 -7.705630 14.523140 -3.514668 28.112674 -7.104726 -0.983023 27.270252 5.140281 -6.433102 -16.947368 -19.746437 7.886135 51.814647 0.788750 0.456030 -25.279270 -5.136598 -24.494946 10.603050 -11.317069 -1.870418 -17.095489 112.453750 -11.192306 -35.631655 -3.498804 3.106994 0.733780 -0.426450 0.481530 0.014760 -3.668205 29.569090 13.303731 17.106347 0.960484 -24.988300 -107.634551 11.986280 -36.317004 2.562723 -1.940880 0.077820 0.123480 -0.163740 -0.169740 
0.215350 17.542520 -1.783570 -4.969603 -3.331536 -27.221327 -15.149735 13.917449 3.022980 8.193180 1.616222 14.353838 -5.925436 8.601288 17.780340 0.423283 6.449752 2.340016 0.499150 0.220270 0.597800 18.215418 -10.835962 2.862627 -5.520120 -2.523774 12.112809 7.293281 -8.065025 18.140685 -1.072803 -5.484415 2.376608 0.008440 -0.222680 0.222380 -3.484166 -2.892312 -7.588284 14.129670 -4.012734 32.167818 -7.190953 -1.181739 27.098849 4.429402 -7.186727 -15.334970 -19.821633 6.959671 45.793916 1.475590 0.155130 -24.751490 -2.958566 -21.649509 9.672063 -13.363017 -4.766552 -16.564807 111.272062 -14.370227 -39.845907 -3.553801 3.086379 0.713210 -0.360090 0.391910 -0.006840 -4.789544 26.709395 12.253400 19.009762 1.231647 -24.622364 -108.765580 15.346286 -41.464485 2.444385 -1.919179 0.016970 0.118180 -0.083920 -0.179300 
